<svg xmlns="http://www.w3.org/2000/svg" viewBox="0 0 512 512" width="512" height="512">
  <!-- 배경 -->
  <rect width="512" height="512" fill="#3d5a3d"/>
  
  <!-- 테두리 원 -->
  <circle cx="256" cy="256" r="190" fill="#2a3d2a" stroke="#ffd700" stroke-width="10"/>
  
  <!-- 중앙 아이콘 - 큰 별 -->
  <polygon points="256,120 286,200 366,200 302,250 332,330 256,280 180,330 210,250 146,200 226,200" fill="#ffd700"/>
  
  <!-- 작은 별들 -->
  <polygon points="150,150 155,165 170,165 158,173 162,188 150,180 138,188 142,173 130,165 145,165" fill="#ffd700"/>
  <polygon points="362,150 367,165 382,165 370,173 374,188 362,180 350,188 354,173 342,165 357,165" fill="#ffd700"/>
  <polygon points="150,362 155,377 170,377 158,385 162,400 150,392 138,400 142,385 130,377 145,377" fill="#ffd700"/>
  <polygon points="362,362 367,377 382,377 370,385 374,400 362,392 350,400 354,385 342,377 357,377" fill="#ffd700"/>
  
  <!-- 텍스트 -->
  <text x="256" y="440" font-family="Arial, sans-serif" font-size="48" font-weight="bold" text-anchor="middle" fill="#ffd700">전술 체스</text>
</svg>
